<?xml version="1.0" encoding="UTF-8"?>
<svg id="svg" version="1.1" width="512" height="512" viewBox="0 0 512 512" xmlns="http://www.w3.org/2000/svg" xmlns:xlink="http://www.w3.org/1999/xlink"><path d="M457.543 177.542 C 448.216 183.288,440.179 188.716,439.682 189.604 C 438.244 192.172,440.506 196.000,443.461 196.000 C 445.586 196.000,452.411 192.360,461.745 186.247 L 463.990 184.776 462.583 188.638 C 461.809 190.762,452.105 215.450,441.018 243.500 C 429.931 271.550,418.136 301.410,414.807 309.855 C 406.927 329.848,402.482 335.000,393.115 335.000 C 385.222 335.000,380.466 331.758,376.247 323.500 C 374.842 320.750,367.969 303.200,360.974 284.500 C 349.499 253.826,347.996 250.407,345.611 249.551 C 343.625 248.839,342.597 248.974,341.475 250.097 C 340.653 250.919,333.666 267.320,325.947 286.545 C 318.229 305.770,310.871 323.083,309.597 325.017 C 303.821 333.784,291.849 337.514,283.369 333.188 C 277.827 330.361,273.145 325.379,270.504 319.500 C 269.269 316.750,264.343 304.150,259.557 291.500 C 254.772 278.850,249.274 264.355,247.340 259.289 C 243.676 249.692,241.912 247.907,238.105 249.944 C 234.181 252.044,234.641 254.434,243.556 278.259 C 262.064 327.722,264.093 331.925,272.603 338.423 C 288.791 350.784,311.148 344.717,320.779 325.351 C 322.379 322.133,328.118 308.363,333.532 294.750 C 338.946 281.138,343.663 270.000,344.014 270.000 C 344.365 270.000,349.065 281.813,354.459 296.250 C 365.586 326.037,367.610 330.456,372.717 336.108 C 379.885 344.042,390.770 346.898,400.953 343.516 C 411.347 340.063,416.321 333.608,424.467 313.000 C 441.205 270.654,469.000 199.825,469.000 199.519 C 469.000 199.325,469.941 196.991,471.092 194.333 L 473.184 189.500 476.842 200.500 C 480.413 211.239,480.575 211.507,483.684 211.808 C 486.122 212.045,487.141 211.605,488.038 209.930 C 489.024 208.087,488.220 204.532,482.936 187.371 C 479.487 176.167,476.177 167.021,475.582 167.047 C 474.987 167.072,466.869 171.795,457.543 177.542 M235.071 217.165 C 224.625 220.165,214.969 232.737,207.547 253.000 C 204.669 260.855,200.489 266.000,196.984 266.000 C 195.893 266.000,195.000 266.145,195.000 266.322 C 195.000 267.212,198.350 276.595,198.884 277.201 C 200.175 278.666,207.866 274.091,210.413 270.343 C 211.850 268.230,215.056 261.280,217.538 254.900 C 222.270 242.739,228.630 232.101,233.209 228.689 C 237.331 225.618,245.619 225.255,250.839 227.918 C 258.444 231.798,259.441 233.851,280.989 289.992 C 284.893 300.162,288.753 309.500,289.566 310.742 C 291.261 313.328,295.129 313.728,297.315 311.543 C 298.116 310.741,303.366 298.479,308.982 284.293 C 328.429 235.163,330.336 231.463,338.354 227.317 C 342.666 225.087,349.901 225.235,354.576 227.650 C 362.598 231.792,363.759 234.157,382.012 283.500 C 387.099 297.250,391.946 309.288,392.785 310.250 C 395.812 313.724,401.000 311.836,401.000 307.259 C 401.000 305.064,381.878 252.985,376.019 239.223 C 368.814 222.299,358.898 215.181,344.000 216.239 C 336.157 216.796,330.959 219.291,325.404 225.167 C 319.404 231.514,318.336 233.691,305.447 265.851 L 293.684 295.203 290.960 287.851 C 272.572 238.233,269.588 231.506,263.044 224.926 C 255.026 216.864,245.409 214.196,235.071 217.165 " stroke="none" fill="#FFFFFF" fill-rule="evenodd"/><path d="M92.105 243.521 C 84.159 245.748,77.145 249.840,71.482 255.552 C 66.522 260.555,60.484 271.156,59.835 276.000 C 59.510 278.426,59.698 278.509,66.157 278.794 L 72.813 279.087 75.240 273.787 C 79.829 263.762,88.993 257.088,99.290 256.270 C 111.433 255.306,118.301 259.032,131.600 273.799 C 136.405 279.135,140.960 283.873,141.722 284.330 C 142.665 284.895,144.499 283.936,147.460 281.330 C 149.853 279.223,151.854 277.128,151.906 276.674 C 152.088 275.078,130.447 252.875,125.781 249.870 C 115.253 243.091,102.331 240.654,92.105 243.521 M145.344 243.041 C 140.602 243.980,130.949 247.932,131.102 248.873 C 131.158 249.218,133.392 251.462,136.068 253.860 C 140.653 257.969,141.115 258.156,144.115 257.110 C 149.515 255.227,157.966 255.770,163.500 258.355 C 173.355 262.957,179.106 270.090,181.640 280.853 C 183.449 288.541,183.338 291.695,180.990 299.298 C 178.664 306.828,172.232 314.769,165.613 318.283 C 159.922 321.303,145.423 321.444,139.500 318.536 C 135.269 316.459,126.137 307.767,116.911 297.035 L 111.353 290.570 105.426 293.535 C 102.167 295.166,99.340 296.585,99.144 296.689 C 98.949 296.793,103.750 302.418,109.815 309.189 C 121.963 322.752,127.686 327.569,136.579 331.714 C 141.792 334.144,143.695 334.475,152.500 334.487 C 161.691 334.499,163.047 334.241,169.259 331.299 C 176.864 327.696,185.925 319.691,189.712 313.228 C 195.395 303.532,197.585 288.579,194.978 277.282 C 189.701 254.415,167.002 238.756,145.344 243.041 M108.571 269.631 C 104.866 273.628,100.552 277.054,97.071 278.764 L 91.500 281.500 57.500 282.000 L 23.500 282.500 23.500 289.000 L 23.500 295.500 52.000 295.790 C 68.019 295.953,83.990 295.621,88.469 295.032 C 100.319 293.473,107.575 289.668,117.370 279.872 L 125.482 271.760 120.644 267.380 C 117.984 264.971,115.513 263.053,115.153 263.117 C 114.794 263.182,111.832 266.113,108.571 269.631 M164.348 273.361 C 156.012 277.855,148.652 284.333,138.301 296.287 L 129.610 306.323 134.490 310.742 L 139.370 315.160 145.856 307.830 C 157.725 294.417,165.319 287.591,171.796 284.515 C 175.208 282.894,178.000 281.003,178.000 280.311 C 178.000 277.708,173.543 270.001,172.051 270.023 C 171.198 270.035,167.732 271.538,164.348 273.361 M60.194 302.750 C 67.379 328.844,97.654 342.525,121.277 330.352 L 124.054 328.921 118.804 324.094 C 114.043 319.716,113.274 319.348,110.534 320.134 C 105.768 321.501,96.789 321.148,91.632 319.390 C 85.749 317.386,77.632 309.684,74.905 303.518 L 72.906 299.000 66.034 299.000 L 59.161 299.000 60.194 302.750 " stroke="none" fill="#67c29b" fill-rule="evenodd"/></svg>